<svg width="86" height="86" viewBox="0 0 86 86" fill="none" xmlns="http://www.w3.org/2000/svg">
<rect y="0.00012207" width="85.9259" height="85.9259" rx="42.963" fill="white"></rect>
<path d="M64.3526 32.9382C64.1047 32.0538 63.6218 31.2532 62.9552 30.6214C62.2698 29.9701 61.4297 29.5043 60.5143 29.2678C57.0884 28.3648 43.3626 28.3648 43.3626 28.3648C37.6405 28.2997 31.9198 28.586 26.2328 29.2222C25.3174 29.4761 24.4789 29.9524 23.792 30.6086C23.117 31.258 22.6281 32.0589 22.3727 32.9364C21.7592 36.2414 21.4611 39.5974 21.4824 42.9588C21.4606 46.3173 21.7579 49.6721 22.3727 52.9813C22.6226 53.8552 23.1097 54.6524 23.7865 55.2963C24.4633 55.9403 25.3061 56.4055 26.2328 56.6517C29.7044 57.5529 43.3626 57.5529 43.3626 57.5529C49.092 57.6181 54.82 57.3318 60.5143 56.6955C61.4297 56.459 62.2698 55.9932 62.9552 55.3419C63.6215 54.7102 64.1039 53.9095 64.3507 53.0251C64.9803 49.7213 65.2864 46.364 65.2647 43.0008C65.312 39.6234 65.0063 36.2502 64.3526 32.9364V32.9382ZM38.999 49.2051V36.7144L50.4189 42.9607L38.999 49.2051Z" fill="#047A4A"></path>
</svg>