<svg width="87" height="87" viewBox="0 0 87 87" fill="none" xmlns="http://www.w3.org/2000/svg">
<rect width="86.6538" height="86.6538" rx="43.3269" fill="white"></rect>
<path d="M50.0778 59.8054C47.6708 60.1283 45.8254 61.2586 44.6218 63.2769C44.3811 63.6806 44.2207 64.0843 44.0602 64.4879C43.98 64.8109 43.8195 64.8916 43.4986 64.8916C34.5925 65.2953 25.7666 59.8861 22.0758 51.6513C17.9036 42.4477 19.9095 31.9524 27.2911 25.0901C32.025 20.6497 37.7216 18.7121 44.2207 19.1158C54.25 19.6809 62.9154 27.1891 65.0015 37.2001C65.4829 39.4606 65.6434 41.8019 65.4027 44.0624C65.4027 44.3853 65.162 44.4661 64.9213 44.5468C60.9095 45.6771 56.978 46.8073 52.9663 48.0183C52.1639 48.2605 51.3616 48.5027 50.5592 48.6642C50.1581 48.7449 49.9976 48.9064 49.9976 49.3908C49.9976 52.6201 49.9976 55.9302 49.9976 59.1595V59.8054H50.0778ZM33.8704 41.9633C33.8704 46.8881 37.8821 50.9247 42.7764 50.844C47.6708 50.844 51.6023 46.8073 51.6023 41.9633C51.6023 37.0386 47.5905 33.0019 42.6962 33.0019C37.8019 33.0827 33.7901 37.0386 33.8704 41.9633ZM34.2715 33.6478C32.3459 31.7102 30.5005 29.8533 28.6551 27.9157C25.4457 30.3377 21.9956 38.734 22.9584 41.8826H30.9017C30.9819 38.6533 32.1052 35.9083 34.2715 33.6478Z" fill="#D9202A"></path>
<path d="M52.806 62.9541V62.389C52.806 58.756 52.806 55.123 52.806 51.49C52.806 51.0863 52.8862 50.9249 53.2874 50.7634C57.941 49.4717 62.5144 48.0992 67.168 46.7267C67.2483 46.7267 67.4087 46.646 67.5692 46.646C67.5692 46.8075 67.5692 46.9689 67.5692 47.1304C67.5692 52.4588 67.5692 57.7872 67.5692 63.1156C67.5692 65.5376 65.5633 67.3945 63.2365 67.3945C60.8295 67.3137 58.9841 65.2954 59.1445 62.8734C59.305 59.967 62.2737 58.1101 64.9214 59.2404C65.0819 59.3211 65.2424 59.4019 65.4831 59.4826V52.2973C61.9528 53.3469 58.3422 54.3157 54.8118 55.3652V56.0918C54.8118 59.6441 54.8118 63.1963 54.8118 66.7486C54.8118 68.9284 53.3676 70.6238 51.2013 71.0275C48.8745 71.4311 46.6279 69.655 46.3872 67.1523C46.2267 64.811 48.0721 62.6312 50.3989 62.6312C51.121 62.6312 51.9234 62.8734 52.806 62.9541Z" fill="#D9202A"></path>
</svg>