<svg width="87" height="87" viewBox="0 0 87 87" fill="none" xmlns="http://www.w3.org/2000/svg">
<rect width="86.6538" height="86.6538" rx="43.3269" fill="white"></rect>
<path d="M65.9852 32.9446C65.8059 32.7653 65.6863 32.4664 65.6266 32.1676C65.5668 29.8965 65.507 27.6851 65.4473 25.414C65.4473 24.9359 65.4473 24.4578 65.3875 23.9796C65.3277 23.5613 65.0289 23.3222 64.6703 23.2625C64.2519 23.2625 63.9531 23.5015 63.8336 23.8601C63.7738 24.0394 63.8336 24.2187 63.8336 24.398C63.8933 26.7289 63.9531 29 64.0129 31.3309C64.0129 31.5102 64.0129 31.7492 64.0129 31.9883C62.5785 31.8688 61.4429 32.2871 60.4269 33.3629C60.2476 33.1836 60.0683 33.0043 59.9488 32.825C58.9925 31.6895 57.9765 30.5539 57.0202 29.4184C56.4824 28.8207 56.064 28.8207 55.5261 29.4184C54.9284 30.0758 54.271 30.793 53.6733 31.4504C53.255 31.8688 52.8366 32.3469 52.478 32.7653C47.8163 27.3265 40.4053 26.6094 35.1458 29.8367C32.5161 31.4504 30.6036 33.7215 29.5278 36.6501C28.1532 40.4751 28.3923 44.2404 30.245 47.8861C29.1095 48.7826 27.9739 49.6791 26.8384 50.5756C26.7786 50.5158 26.7188 50.5158 26.7188 50.456C24.9856 48.5435 21.8778 48.8423 20.5629 50.9939C20.5032 51.1135 20.1446 51.1732 20.025 51.1732C19.2481 50.9939 18.4711 50.7549 17.6941 50.5756C17.0367 50.3365 16.6184 50.5756 16.4988 50.9939C16.3793 51.4721 16.5586 51.8904 17.1563 52.01C17.8137 52.1892 18.4711 52.4283 19.1285 52.5478C19.7262 52.6674 19.9653 52.9064 20.025 53.6236C20.2043 55.7752 21.9973 57.1498 24.1489 57.0303C26.1809 56.9108 27.9141 55.1178 27.7349 53.0857C27.6153 52.0099 28.0337 51.4721 28.8106 50.9939C28.9899 50.8744 29.1095 50.7549 29.2888 50.6353C29.8864 50.1572 30.4841 49.6791 31.1415 49.2009C32.4564 50.9939 34.0103 52.3685 35.9228 53.3846C36.0423 53.4443 36.1619 53.7432 36.1619 53.9225C36.1619 55.2971 36.1619 56.6717 36.1619 58.0463C36.1619 59.2416 36.1619 60.4967 36.1619 61.6921C36.1619 62.4093 36.4607 62.7081 37.1779 62.7081C37.7158 62.7081 38.1939 62.7081 38.7916 62.7081C38.7916 63.8436 38.7916 64.9792 38.7916 66.055C38.7916 66.8917 39.0306 67.1905 39.8674 67.1905C41.3615 67.1905 42.8557 67.1905 44.3498 67.1905C45.2463 67.1905 45.4854 66.9515 45.4854 65.9952C45.4854 64.9194 45.4854 63.8436 45.4854 62.7081C46.0233 62.7081 46.5014 62.7081 46.9795 62.7081C47.9956 62.7081 48.2346 62.469 48.2346 61.453C48.2346 58.9428 48.2346 56.4326 48.2346 53.9822C48.2346 53.6236 48.3542 53.4443 48.653 53.2053C49.6092 52.5478 50.6253 51.8904 51.462 51.0537C54.6894 47.8263 56.064 43.9415 55.4663 39.3993C55.2273 37.4868 54.5101 35.6938 53.4343 34.0204C54.3905 33.0043 55.287 31.9883 56.303 30.9125C56.4226 31.0918 56.5421 31.2113 56.6616 31.3309C57.4386 32.2274 58.2156 33.1836 58.9925 34.0801C59.4109 34.5582 59.7097 34.9766 59.5304 35.634C59.4707 35.7536 59.5304 35.9329 59.5304 36.1122C59.5902 37.9051 60.8453 39.4591 62.5785 39.8177C64.3117 40.1763 66.1047 39.3395 66.9414 37.7258C67.6586 36.1719 67.3 34.1399 65.9852 32.9446ZM23.8501 55.4166C22.5352 55.4764 21.5789 54.4604 21.5789 53.0857C21.5789 51.7709 22.5352 50.6951 23.7903 50.6951C25.0454 50.6951 26.1212 51.7709 26.1809 53.026C26.1212 54.2811 25.1051 55.4166 23.8501 55.4166ZM36.5802 32.6457C37.417 32.4067 38.0744 32.7653 38.0744 33.1836C38.1342 33.6618 37.8353 34.2594 37.2974 34.4387C36.3412 34.7375 35.3849 35.7536 35.0861 36.7098C34.847 37.427 34.0701 37.7258 33.4126 37.1282C33.3529 36.9489 33.1736 36.4708 33.2931 36.0524C33.831 34.3789 34.847 33.4825 36.5802 32.6457ZM43.8119 65.278C43.8119 65.3976 43.6326 65.5171 43.5131 65.5171C42.4971 65.5171 41.4213 65.5171 40.3455 65.5171V62.7678H43.8119C43.8119 63.6046 43.8119 64.4413 43.8119 65.278ZM46.5014 61.0346H37.7756V57.8073H46.5612V61.0346H46.5014ZM63.2957 38.3235C62.0406 38.3235 61.0843 37.3075 61.0843 35.9329C61.0843 34.6778 62.1601 33.5422 63.475 33.6618C64.6703 33.7215 65.6863 34.4985 65.6863 35.9926C65.6863 37.2477 64.6105 38.3235 63.2957 38.3235Z" fill="#D9202A"></path>
<path d="M69.8701 24.8163C68.4357 23.3221 66.9415 21.828 65.5071 20.3338C64.9692 19.7959 64.6106 19.7959 64.0727 20.3338C63.0567 21.2901 62.1005 22.3061 61.0844 23.3221C60.5465 23.86 59.9489 24.3979 59.4708 24.9956C59.2915 25.1749 59.2317 25.5933 59.2915 25.8323C59.3512 26.0714 59.7098 26.3105 59.9489 26.3105C60.188 26.3105 60.5465 26.1312 60.7258 25.9519C62.1005 24.637 63.4153 23.2624 64.6106 22.0671C66.045 23.3819 67.4196 24.6968 68.7345 25.9519C69.2126 26.43 69.6908 26.43 70.0494 26.0714C70.3482 25.7128 70.2884 25.2347 69.8701 24.8163Z" fill="#D9202A"></path>
<path d="M31.7394 25.8324C31.9785 26.3105 32.4566 26.43 32.8749 26.191C33.2335 25.9519 33.4128 25.5335 33.1738 25.1152C32.7554 24.2187 32.2773 23.3222 31.7992 22.4257C31.6796 22.1866 31.3808 22.0671 31.2613 22.0073C30.4245 22.0073 30.1257 22.605 30.4245 23.2026C30.7831 24.0991 31.2613 24.9956 31.7394 25.8324Z" fill="#D9202A"></path>
<path d="M51.3426 26.2508C51.7012 26.4899 52.1794 26.3703 52.4184 25.952C52.8965 24.9957 53.3149 24.0394 53.793 23.0832C53.8528 23.0234 53.8528 22.9039 53.9126 22.6648C53.7333 22.4855 53.554 22.1867 53.3149 22.0672C52.9563 21.8879 52.5379 22.0672 52.3587 22.4258C51.8805 23.382 51.4622 24.2785 50.984 25.2348C50.745 25.6531 50.9243 26.0117 51.3426 26.2508Z" fill="#D9202A"></path>
<path d="M42.0789 25.7726C42.557 25.7726 42.7961 25.4738 42.8559 24.9359C42.8559 24.4577 42.8559 23.9796 42.8559 23.5015C42.8559 22.9636 42.8559 22.4855 42.8559 21.9476C42.8559 21.4097 42.557 21.1108 42.0789 21.1108C41.6008 21.1108 41.2422 21.4097 41.2422 21.9476C41.2422 22.9636 41.2422 23.9198 41.2422 24.9359C41.2422 25.4738 41.6008 25.7726 42.0789 25.7726Z" fill="#D9202A"></path>
</svg>